CATALOG 0000000000000
FILE "Amiga Format CD40 (1999-05-11)(Future Publishing)(GB)(Track 1 of 3)[!][issue 1999-06].iso" BINARY
  TRACK 01 MODE1/2048
    INDEX 01 00:00:00
FILE "Amiga Format CD40 (1999-05-11)(Future Publishing)(GB)(Track 2 of 3)[!][issue 1999-06].wav" WAVE
  TRACK 02 AUDIO
    PREGAP 00:02:00
    INDEX 01 00:00:00
FILE "Amiga Format CD40 (1999-05-11)(Future Publishing)(GB)(Track 3 of 3)[!][issue 1999-06].wav" WAVE
  TRACK 03 AUDIO
    INDEX 00 00:00:00
    INDEX 01 00:02:00
